<svg width="609" height="673" viewBox="0 0 609 673" fill="none" xmlns="http://www.w3.org/2000/svg">
<g clip-path="url(#clip0_231_1249)">
<path d="M496.48 35.5786H349.467V80.3813L496.48 80.3761C514.303 80.3761 531.397 87.4594 544.001 100.059C556.6 112.663 563.684 129.756 563.684 147.58V531.22C563.684 549.043 556.601 566.137 544.001 578.736C531.397 591.34 514.304 598.419 496.48 598.419H349.467V643.221H496.48C526.183 643.221 554.673 631.419 575.677 610.419C596.683 589.413 608.48 560.924 608.48 531.221V147.581C608.48 117.873 596.683 89.3881 575.677 68.3841C554.672 47.3787 526.183 35.5814 496.48 35.5814V35.5786Z" fill="#FBEF5C"/>
<path d="M504.92 459.533C512.081 459.538 518.999 456.903 524.336 452.127C529.68 447.356 533.07 440.778 533.872 433.658C534.669 426.543 532.815 419.376 528.664 413.538L468.336 328.866L399.044 231.803C393.56 224.142 384.721 219.595 375.299 219.595C365.877 219.595 357.033 224.142 351.553 231.803L349.465 234.714V459.528L504.92 459.533Z" fill="#FBEF5C"/>
<path d="M282.267 0.333252C276.329 0.333252 270.631 2.69259 266.428 6.89579C262.23 11.0937 259.865 16.7917 259.865 22.7345V35.5782H112.852C83.1494 35.5782 54.6587 47.3751 33.6547 68.3809C12.6494 89.3862 0.852051 117.87 0.852051 147.578V531.218C0.852051 560.921 12.649 589.412 33.6547 610.416C54.6601 631.416 83.1494 643.218 112.852 643.218H259.865V649.937C259.865 657.942 264.136 665.338 271.068 669.338C277.996 673.338 286.538 673.338 293.47 669.338C300.397 665.338 304.668 657.942 304.668 649.937V22.737C304.668 16.7943 302.308 11.0963 298.105 6.89832C293.907 2.69525 288.209 0.335785 282.266 0.335785L282.267 0.333252ZM259.865 459.533H104.412C97.2505 459.538 90.3332 456.903 84.9959 452.127C79.6522 447.356 76.2615 440.778 75.4595 433.658C74.6626 426.543 76.5168 419.376 80.6678 413.538L108.069 375.011L144.58 323.792H144.585C150.043 316.1 158.892 311.527 168.325 311.527C177.762 311.527 186.612 316.1 192.07 323.792L228.508 375.011L238.888 389.943L259.867 360.23L259.865 459.533Z" fill="#FBEF5C"/>
</g>
<defs>
<clipPath id="clip0_231_1249">
<rect width="609" height="673" fill="white"/>
</clipPath>
</defs>
</svg>
