<?xml version="1.0" standalone="no"?>
<!DOCTYPE svg PUBLIC "-//W3C//DTD SVG 20010904//EN"
 "http://www.w3.org/TR/2001/REC-SVG-20010904/DTD/svg10.dtd">
<svg version="1.0" xmlns="http://www.w3.org/2000/svg"
 width="673.000000pt" height="673.000000pt" viewBox="0 0 673.000000 673.000000"
 preserveAspectRatio="xMidYMid meet">
<metadata>
Created by potrace 1.14, written by Peter Selinger 2001-2017
</metadata>
<g transform="translate(0.000000,673.000000) scale(0.100000,-0.100000)"
fill="#000000" stroke="none">
<path d="M3070 6713 c-24 -8 -50 -21 -57 -29 -8 -7 -22 -19 -31 -26 -20 -15
-50 -72 -57 -108 -3 -14 -6 -59 -7 -100 l-1 -75 -771 -1 c-747 -1 -840 -3
-936 -26 -147 -34 -350 -126 -430 -196 -8 -7 -35 -29 -59 -50 -86 -73 -174
-174 -224 -257 -55 -91 -127 -267 -141 -341 -11 -57 -19 -113 -22 -144 -10
-92 -3 -4115 6 -4115 1 0 4 -12 6 -28 21 -127 94 -303 176 -427 69 -104 294
-319 329 -316 4 1 15 -6 25 -15 15 -14 158 -89 167 -88 1 0 9 -2 17 -5 104
-33 196 -54 278 -62 26 -3 392 -5 813 -6 l766 -1 2 -51 c3 -80 10 -102 49
-153 97 -129 297 -108 374 38 l23 44 1 3180 c1 3496 6 3227 -62 3299 -62 66
-149 88 -234 59z m-1000 -3108 c49 -10 90 -32 128 -69 28 -26 192 -246 227
-304 6 -9 13 -19 16 -22 5 -4 171 -238 209 -294 8 -12 25 -36 38 -54 l23 -32
46 68 c81 119 108 157 114 162 3 3 11 15 18 28 6 12 16 22 20 22 5 0 8 -219 7
-487 l-1 -488 -790 -1 c-843 0 -849 0 -920 49 -84 57 -127 138 -129 242 0 55
5 81 23 120 14 28 27 52 31 55 3 3 44 59 90 125 46 66 86 122 89 125 4 3 19
25 35 49 16 25 33 50 38 55 5 6 36 49 69 96 33 47 65 92 72 100 7 8 21 28 31
45 11 16 28 38 38 49 10 11 18 25 18 32 0 7 3 14 8 16 12 5 62 76 62 87 0 6 4
11 9 11 5 0 23 21 39 48 51 78 105 128 167 154 60 26 103 29 175 13z"/>
<path d="M3829 6372 c-13 -2 -15 -36 -15 -224 l1 -222 785 -1 c809 -2 835 -3
913 -42 15 -7 27 -11 27 -7 0 10 112 -56 160 -95 122 -98 196 -214 240 -376
11 -41 14 -398 15 -2050 1 -1106 -3 -2022 -8 -2050 -39 -226 -192 -417 -403
-505 -43 -17 -89 -34 -103 -36 -14 -2 -39 -7 -56 -11 -16 -4 -374 -8 -795 -9
-421 -1 -767 -2 -770 -3 -3 0 -6 -100 -6 -221 l1 -220 25 -1 c67 -2 1415 -1
1480 1 176 6 322 43 475 122 69 36 132 74 145 88 3 3 21 17 40 31 33 24 142
130 165 161 57 73 95 127 95 136 0 5 4 12 8 14 13 5 107 208 96 208 -2 0 0 9
6 21 6 11 13 29 16 40 2 10 6 29 9 42 3 12 8 38 11 57 3 19 9 53 13 75 9 49 6
4032 -3 4097 -9 68 -42 206 -61 253 -27 70 -108 225 -117 225 -4 0 -8 7 -8 15
0 8 -4 15 -8 15 -4 0 -16 14 -27 32 -32 55 -178 192 -265 250 -156 103 -310
161 -490 185 -38 5 -1566 10 -1591 5z"/>
<path d="M4010 4525 c-25 -7 -56 -17 -70 -23 -29 -11 -119 -97 -121 -115 -5
-37 -4 -2247 1 -2248 3 -1 356 -2 785 -3 822 -2 847 -1 919 44 42 25 106 108
123 158 28 80 -1 219 -57 280 -11 12 -20 24 -20 27 0 3 -5 11 -10 18 -17 19
-56 74 -250 347 -72 101 -137 194 -145 205 -8 11 -42 57 -75 103 -33 45 -60
87 -60 92 0 6 -3 10 -7 10 -5 0 -27 28 -51 63 -68 99 -132 190 -152 217 -10
14 -53 72 -94 130 -41 58 -88 123 -103 144 -15 22 -43 59 -60 83 -18 24 -33
47 -33 52 0 5 -4 11 -8 13 -5 2 -23 26 -42 53 -19 28 -38 55 -43 60 -4 6 -34
46 -65 90 -98 139 -122 162 -204 191 -58 21 -104 23 -158 9z"/>
</g>
</svg>
